<svg xmlns="http://www.w3.org/2000/svg" xmlns:xlink="http://www.w3.org/1999/xlink" viewBox="0 0 186.199 181.478"><path clip-path="url(#b)" fill="#2f76c8" d="M143.021 76.969c-23.809 0-43.178 19.369-43.178 43.178 0 2.092.326 4.279.912 6.529h-.084a2 2 0 0 0 0 4h1c.121 0 .24-.015.354-.036 8.395 22.189 38.212 48.41 39.681 49.69l1.314 1.147 1.315-1.147c1.709-1.491 41.862-36.802 41.862-60.184.002-23.808-19.366-43.177-43.176-43.177m0 99.168c-6.968-6.33-39.178-36.645-39.178-55.99 0-21.603 17.575-39.178 39.178-39.178 21.604 0 39.178 17.575 39.178 39.178 0 19.338-32.213 49.661-39.178 55.99"/><path clip-path="url(#b)" fill="#2f76c8" d="M143.021 97.781c-12.988 0-23.555 10.567-23.555 23.556s10.566 23.555 23.555 23.555 23.556-10.566 23.556-23.555-10.567-23.556-23.556-23.556m0 43.11c-10.782 0-19.555-8.772-19.555-19.555s8.772-19.556 19.555-19.556 19.556 8.772 19.556 19.556c0 10.783-8.773 19.555-19.556 19.555M34.199 70.017l1.316 1.147 1.315-1.147c1.148-1.002 28.112-24.716 28.112-40.59C64.942 13.201 51.74 0 35.515 0 19.289 0 6.088 13.201 6.088 29.427c0 15.874 26.964 39.588 28.111 40.59m-24.111-40.59C10.088 15.406 21.494 4 35.515 4c14.02 0 25.427 11.406 25.427 25.427 0 5.697-4.562 13.953-13.193 23.875-4.937 5.676-9.93 10.404-12.234 12.516-2.305-2.112-7.297-6.84-12.235-12.516-8.63-9.922-13.192-18.178-13.192-23.875"/><path clip-path="url(#b)" fill="#2f76c8" d="M49.224 29.972c0-7.56-6.149-13.709-13.709-13.709s-13.709 6.149-13.709 13.709 6.149 13.709 13.709 13.709 13.709-6.149 13.709-13.709m-23.418 0c0-5.354 4.355-9.709 9.709-9.709s9.709 4.355 9.709 9.709-4.355 9.709-9.709 9.709-9.709-4.355-9.709-9.709M21.672 126.676h-1a2 2 0 0 0 0 4h1a2 2 0 0 0 0-4M20.608 98.864a2 2 0 0 0 0-4h-1a2 2 0 0 0 0 4h1zM14.21 126.252a14.354 14.354 0 0 1-.846-.243 2 2 0 1 0-1.222 3.809c.354.113.713.217 1.076.31a2.001 2.001 0 0 0 .992-3.876M12.493 99.844c.268-.107.54-.205.815-.295a2 2 0 0 0-1.236-3.805c-.361.117-.716.245-1.067.387a2 2 0 1 0 1.488 3.713M28.608 98.864a2 2 0 0 0 0-4h-1a2 2 0 0 0 0 4h1zM37.672 126.676h-1a2 2 0 0 0 0 4h1a2 2 0 0 0 0-4M36.608 98.864a2 2 0 0 0 0-4h-1a2 2 0 0 0 0 4h1zM29.672 126.676h-1a2 2 0 0 0 0 4h1a2 2 0 0 0 0-4M85.776 81.518c.244.08.481.173.712.28a1.998 1.998 0 0 0 2.656-.972 2.002 2.002 0 0 0-.972-2.657 10.608 10.608 0 0 0-1.148-.452 2.001 2.001 0 0 0-1.248 3.801M90.288 86.424a2 2 0 0 0 3.891-.932 11.21 11.21 0 0 0-.354-1.174 2 2 0 1 0-3.76 1.367c.089.24.164.487.223.739M39.449 77.174h-1a2 2 0 0 0 0 4h1a2 2 0 0 0 0-4M1.634 111.788a2.001 2.001 0 0 0 2.332-1.6c.054-.286.116-.569.188-.848a2 2 0 0 0-1.443-2.433 1.992 1.992 0 0 0-2.432 1.442 17.35 17.35 0 0 0-.245 1.105 2 2 0 0 0 1.6 2.334M4.413 117.094a13.02 13.02 0 0 1-.245-.838 2.002 2.002 0 0 0-3.873 1.003c.095.365.201.727.317 1.082a2.003 2.003 0 0 0 2.525 1.276 1.999 1.999 0 0 0 1.276-2.523M7.518 122.312a2 2 0 1 0-2.91 2.744c.257.272.522.537.797.794a1.998 1.998 0 0 0 2.827-.093 2 2 0 0 0-.093-2.827c-.214-.2-.421-.406-.621-.618M5.357 104.655c.576 0 1.147-.248 1.543-.727.186-.226.379-.445.578-.658a1.998 1.998 0 0 0-.094-2.826 1.997 1.997 0 0 0-2.826.094c-.256.273-.503.555-.742.845a1.998 1.998 0 0 0 1.541 3.272M92.135 94.748c.254-.321.49-.657.704-1 .585-.938.3-2.171-.638-2.755a1.995 1.995 0 0 0-2.754.638c-.138.22-.288.432-.449.635a2.001 2.001 0 0 0 3.137 2.482M77.672 126.676h-1a2 2 0 0 0 0 4h1a2 2 0 0 0 0-4M76.608 98.864a2 2 0 0 0 0-4h-1a2 2 0 0 0 0 4h1zM71.449 77.174h-1a2 2 0 0 0 0 4h1a2 2 0 0 0 0-4M69.672 126.676h-1a2 2 0 0 0 0 4h1a2 2 0 0 0 0-4M79.449 77.174h-1a2 2 0 0 0 0 4h1a2 2 0 0 0 0-4M85.672 126.676h-1a2 2 0 0 0 0 4h1a2 2 0 0 0 0-4M93.672 126.676h-1a2 2 0 0 0 0 4h1a2 2 0 0 0 0-4M84.822 98.799a2 2 0 0 0 1.771-2.206 2.013 2.013 0 0 0-2.207-1.771 7.12 7.12 0 0 1-.779.041c-1.104 0-1.989.896-1.989 2s.907 2 2.012 2c.403.001.801-.021 1.192-.064M68.608 98.864a2 2 0 0 0 0-4h-1a2 2 0 0 0 0 4h1zM45.672 126.676h-1a2 2 0 0 0 0 4h1a2 2 0 0 0 0-4M53.672 126.676h-1a2 2 0 0 0 0 4h1a2 2 0 0 0 0-4M47.449 77.174h-1a2 2 0 0 0 0 4h1a2 2 0 0 0 0-4M52.608 98.864a2 2 0 0 0 0-4h-1a2 2 0 0 0 0 4h1zM44.608 98.864a2 2 0 0 0 0-4h-1a2 2 0 0 0 0 4h1zM61.672 126.676h-1a2 2 0 0 0 0 4h1a2 2 0 0 0 0-4M63.449 77.174h-1a2 2 0 0 0 0 4h1a2 2 0 0 0 0-4M60.608 98.864a2 2 0 0 0 0-4h-1a2 2 0 0 0 0 4h1zM55.449 77.174h-1a2 2 0 0 0 0 4h1a2 2 0 0 0 0-4"/></svg>