<svg xmlns="http://www.w3.org/2000/svg" xmlns:xlink="http://www.w3.org/1999/xlink" viewBox="0 0 187.477 172.566"><path fill="#2f76c8" d="M184.059 40.955L97.271.553A5.947 5.947 0 0 0 94.774 0c-.856 0-1.72.191-2.496.553L5.491 40.955a5.863 5.863 0 0 0-3.419 5.354 5.864 5.864 0 0 0 3.402 5.365l17.238 8.093c-.432.693-.828 1.547-1.131 2.613-1.407 4.944-1.733 15.54-1.155 22.336.647 7.615.255 11.115.098 12.106-4.815.683-8.533 4.819-8.533 9.819 0 5.336 4.234 9.69 9.518 9.909-.65.164-1.13.748-1.133 1.444-.001.283-.34 28.383-19.676 40.572a1.504 1.504 0 0 0-.079 2.486c3.535 2.554 7.036 5.321 10.422 7.998 1.39 1.099 2.749 2.174 4.069 3.2a1.495 1.495 0 0 0 1.879-.032c.493-.409.974-.793 1.442-1.166 5.922-4.724 9.168-8.358 7.016-28.118-.318-2.83-.555-4.874-.735-6.431-.57-4.921-.57-4.921-.823-9.545-.108-1.959-.259-4.738-.518-9.048a1.502 1.502 0 0 0-1.119-1.357c5.32-.179 9.596-4.551 9.596-9.913 0-4.92-3.601-9.005-8.304-9.785.21-1.633.465-5.378-.132-12.394-.612-7.205-.12-17.139 1.052-21.261.276-.971.631-1.658.985-2.148l11.704 5.494v40.64l.208.529c.412 1.048 10.642 25.662 58.327 25.662s57.915-24.614 58.327-25.662l.208-.529V65.687l29.85-14.014a5.86 5.86 0 0 0 3.403-5.365 5.866 5.866 0 0 0-3.419-5.353M22.468 143.265c2.077 19.076-1.099 21.608-5.906 25.443l-.55.438a734.886 734.886 0 0 1-3.108-2.45c-2.862-2.262-5.805-4.589-8.796-6.81 7.685-5.528 13.409-14.24 16.618-25.341a69.21 69.21 0 0 0 .534-1.957c.1 1.029.239 2.236.474 4.26.18 1.556.416 3.598.734 6.417m6.382-36.624a6.93 6.93 0 1 1-13.86-.001 6.93 6.93 0 0 1 13.86.001m122.375-.023s-9.346 23.761-55.535 23.761c-46.19 0-55.535-23.761-55.535-23.761V67.956l52.106 24.462a5.96 5.96 0 0 0 2.514.561 5.96 5.96 0 0 0 2.515-.561l53.936-25.321v39.521zm31.576-57.66L96.014 89.703a2.925 2.925 0 0 1-2.479 0L29.06 59.433l66.026-14a1.5 1.5 0 0 0 1.155-1.779 1.497 1.497 0 0 0-1.778-1.156L26.521 56.904c-.264.047-.857.193-1.559.605L6.749 48.958c-2.24-1.051-2.234-4.239.009-5.283L93.544 3.272a2.925 2.925 0 0 1 2.461 0l86.786 40.403c2.243 1.044 2.249 4.232.01 5.283"/></svg>