<svg xmlns="http://www.w3.org/2000/svg" xmlns:xlink="http://www.w3.org/1999/xlink" viewBox="0 0 183.762 187.788"><path fill="#2f76c8" d="M107.381 45.071v-5.948l11.644 10.859c.664.62 1.497.942 2.35.942.479 0 .966-.102 1.433-.31a3.428 3.428 0 0 0 2.059-3.236l-.171-9.229h3.299a5.527 5.527 0 0 0 5.52-5.521V5.521A5.527 5.527 0 0 0 127.995 0H85.862a5.527 5.527 0 0 0-5.52 5.521v6.923H59.73a5.526 5.526 0 0 0-5.52 5.52v27.107a5.527 5.527 0 0 0 5.52 5.521h3.299l-.171 9.229a3.425 3.425 0 0 0 2.059 3.237c.466.207.952.309 1.432.309.853 0 1.686-.322 2.351-.942l12.687-11.833h20.474a5.527 5.527 0 0 0 5.52-5.521M83.342 12.444V5.521A2.524 2.524 0 0 1 85.862 3h42.131a2.524 2.524 0 0 1 2.52 2.521v27.107a2.524 2.524 0 0 1-2.52 2.521h-6.356l.229 12.284a.445.445 0 0 1-.281.441.439.439 0 0 1-.514-.086l-13.553-12.639H85.862a2.52 2.52 0 0 1-2.52-2.521V12.444zm-3.137 35.148L66.653 60.231a.443.443 0 0 1-.514.087.446.446 0 0 1-.281-.441l.228-12.285H59.73a2.524 2.524 0 0 1-2.52-2.521V17.964c0-1.39 1.131-2.52 2.52-2.52h20.612v17.184a5.527 5.527 0 0 0 5.52 5.521h18.519v6.922a2.524 2.524 0 0 1-2.52 2.521H80.205zM148.756 64.69c8.802 0 15.962-7.159 15.962-15.96 0-8.8-7.16-15.96-15.962-15.96-8.801 0-15.96 7.16-15.96 15.96 0 8.801 7.159 15.96 15.96 15.96m0-28.92c7.146 0 12.962 5.814 12.962 12.96s-5.815 12.96-12.962 12.96c-7.146 0-12.96-5.814-12.96-12.96s5.814-12.96 12.96-12.96M32.789 64.69c8.801 0 15.96-7.159 15.96-15.96 0-8.8-7.159-15.96-15.96-15.96-8.801 0-15.96 7.16-15.96 15.96 0 8.801 7.159 15.96 15.96 15.96m0-28.92c7.146 0 12.96 5.814 12.96 12.96s-5.814 12.96-12.96 12.96-12.96-5.814-12.96-12.96 5.814-12.96 12.96-12.96M59.494 89.726c-.567-8.33-5.494-20.383-12.918-20.383H22.944c-.897 0-1.753.137-2.537.393-5.813 1.427-11.608 6.867-12.894 18.693-1.35 12.421-5.863 30.404-6.219 31.812-.659 1.704-1.974 5.662-.865 7.663.374.674.99 1.122 1.735 1.261.6.113 1.168.182 1.719.182 2.452 0 4.551-1.339 7.525-5.983 1.59-2.48 3.215-6.46 4.799-10.924v67.661c0 1.543 0 6.239 4.641 6.999l.242.019c2.399 0 5.343-1.7 5.741-6.489l.009-.114c.366-4.413 1.399-15.849 3.077-26.697 2.854-18.443 5.481-21.664 6.288-22.225 1.236 1.892 2.994 10.794 4.717 40.904.147 2.568.244 4.266.312 4.927l.076.743c.348 3.544.826 8.397 5.793 8.887 1.489.147 2.816-.26 3.825-1.175 2.387-2.164 2.387-6.488 2.387-8.813v-53.495c.04.081.08.171.12.249 3.068 5.87 5.915 6.866 7.491 6.866.441 0 .784-.079 1.003-.149 1.705-.555 2.633-2.396 2.309-4.59-.042-.28-4.182-28.006-4.744-36.222m1.508 37.958c-.573.192-2.619-.872-4.909-5.253-.933-1.785-1.741-4.423-2.435-7.445L52.037 87.22a1.5 1.5 0 1 0-2.995.175l1.1 18.848c.035 2.513.089 5.181.172 7.924v62.899c0 1.592 0 5.32-1.402 6.591-.239.216-.656.489-1.516.41-2.268-.223-2.704-2.152-3.101-6.193l-.076-.759c-.062-.594-.162-2.353-.302-4.789-2.324-40.622-4.654-43.851-7.459-43.851-2.797 0-6.113 2.956-9.506 24.884-1.692 10.943-2.733 22.462-3.101 26.907l-.01.113c-.187 2.247-1.193 3.665-2.637 3.735-1.029-.194-1.997-.745-1.997-4.015v-76.462l4.25-13.91a1.5 1.5 0 0 0-2.87-.877l-2.81 9.198-.67 2.102c-2.6 8.164-5.549 17.418-8.224 21.595-3.036 4.739-4.31 4.803-5.879 4.525-.134-.82.356-3.071 1.119-5.025l.056-.174c.049-.191 4.894-19.235 6.316-32.318.907-8.338 5.26-12.901 8.677-14.984.048.023.118-.005.219-.123.008-.009.02-.017.028-.026 1.522-.887 2.834-1.277 3.525-1.277h23.632c4.834 0 9.383 9.621 9.926 17.587.568 8.336 4.599 35.317 4.769 36.459.111.752-.085 1.234-.269 1.295M182.244 122.04c-.528-1.315-5.132-13.223-7.068-33.307l-.017-.115c-.117-.678-2.82-15.427-12.515-18.696a6.631 6.631 0 0 0-2.71-.579h-22.547c-3.62 0-6.875 2.552-8.114 6.437-4.263 14.766-18.122 25.461-25.523 28.711l-.328.146c-.207.094-5.082 1.633-4.656 4.852.361 2.733 4.094 4.382 6.895 4.846 2.707.402 5.17.58 7.411.58 9.209 0 13.899-2.208 16.295-4.283.013.025.023.052.036.076l-.451 12.046.021.001c-.155 1.074-.227 3.411-.4 9.035-.147 4.808-.307 11.996-.222 18.943.161 13.035.483 25.957.486 26.048 0 1.06.159 10.351 5.677 10.351 4.642-.031 5.522-7.247 5.653-8.694.188-2.12 1.979-24.051 1.997-24.255l1.997-21.461c.003-.016.159-1.439 1.036-1.439.868 0 1.031 1.393 1.037 1.44l4.239 22.143 4.218 24.787c.115.833 1.267 8.137 5.956 8.137 4.125 0 5.972-4.19 5.972-8.344V113.81c.506 1.592 1.049 3.315 1.636 5.196 3.047 9.759 8.946 10.911 10.029 11.042a6.58 6.58 0 0 0 1.411.152c1.456 0 3.129-.497 3.807-2.256.887-2.305-.729-5.087-1.258-5.904m-1.544 4.827c-.232.357-1.264.368-1.812.241 0 0-5.139-.569-7.771-8.996a337.702 337.702 0 0 0-3.193-9.716l-6.482-21.018a1.501 1.501 0 0 0-1.876-.992 1.502 1.502 0 0 0-.991 1.876l5.045 16.36v74.822c0 .218-.033 5.344-2.972 5.344-1.646 0-2.739-3.813-2.992-5.595l-4.229-24.863-4.213-21.968c-.164-1.458-1.193-4.081-4.017-4.081-2.876 0-3.889 2.722-4.021 4.161l-2 21.478c-.019.222-1.81 22.141-1.997 24.249-.256 2.86-1.355 5.952-2.674 5.962-1.877 0-2.664-4.788-2.668-7.389-.004-.128-.325-13.031-.486-26.047-.141-11.463.386-24.23.55-27.135l.024-.021 1.053-18.528 3.042-20.957a1.5 1.5 0 1 0-2.968-.431l-3.238 22.303c-2.84 3.102-9.509 7.549-23.687 5.442-3.933-.65-4.273-1.424-4.387-2.271-.112-.847 1.476-1.073 2.926-1.733l.29-.128c7.916-3.476 22.424-14.205 27.339-31.373l-.016-.002c1.233-2.537 3.133-3.52 5.108-3.52h22.439c9.227 1.069 12.181 15.755 12.367 16.742 2.096 21.63 6.562 32.199 7.335 34.242.776 2.045 2.073 2.162 1.172 3.542"/></svg>