<svg xmlns="http://www.w3.org/2000/svg" xmlns:xlink="http://www.w3.org/1999/xlink" viewBox="0 0 178.472 186.999"><path fill="#2f76c8" d="M89.405 44.413c7.196 0 13.051-5.855 13.051-13.051 0-7.197-5.854-13.051-13.051-13.051-7.196 0-13.051 5.854-13.051 13.051 0 7.196 5.855 13.051 13.051 13.051m0-23.102c5.542 0 10.051 4.509 10.051 10.051s-4.509 10.051-10.051 10.051-10.051-4.509-10.051-10.051 4.509-10.051 10.051-10.051M114.156 62.17c0-3.718-1.457-7.222-4.103-9.868s-6.15-4.103-9.868-4.103H78.624c-3.718 0-7.222 1.457-9.867 4.103-2.646 2.646-4.103 6.15-4.103 9.868 0 4.218 7.122 14.333 24.751 14.333s24.751-10.115 24.751-14.333m-46.502 0c0-2.917 1.145-5.667 3.224-7.747 2.079-2.079 4.83-3.224 7.746-3.224h21.562c2.917 0 5.668 1.145 7.747 3.224 2.078 2.08 3.224 4.83 3.224 7.747 0 2.307-5.678 11.333-21.751 11.333-16.075 0-21.752-9.026-21.752-11.333M17.035 154.943c0 5.106 4.155 9.262 9.261 9.262 5.107 0 9.262-4.155 9.262-9.262s-4.155-9.262-9.262-9.262c-5.106.001-9.261 4.156-9.261 9.262m15.523 0a6.269 6.269 0 0 1-6.262 6.262 6.269 6.269 0 0 1-6.261-6.262 6.27 6.27 0 0 1 6.261-6.262 6.27 6.27 0 0 1 6.262 6.262M79.671 154.943c0 5.106 4.154 9.262 9.261 9.262 5.106 0 9.261-4.155 9.261-9.262s-4.155-9.262-9.261-9.262c-5.107.001-9.261 4.156-9.261 9.262m15.522 0a6.27 6.27 0 0 1-6.261 6.262 6.268 6.268 0 0 1-6.261-6.262 6.269 6.269 0 0 1 6.261-6.262 6.27 6.27 0 0 1 6.261 6.262"/><path fill="#2f76c8" d="M178.473 160.398c0-14.164-11.129-25.775-25.102-26.556v-30.247H90.736V88.211c23.714-.708 42.792-20.206 42.792-44.089C133.528 19.793 113.734 0 89.405 0c-24.33 0-44.123 19.794-44.123 44.123 0 23.77 18.896 43.199 42.454 44.081v15.392H25.101v30.247C11.128 134.623 0 146.233 0 160.398c0 8.651 4.153 16.349 10.569 21.209v.025l.63.448c.084.06.172.109.257.168.45.313.908.617 1.378.902.132.081.268.154.402.232.385.224.776.438 1.173.645.175.091.349.184.525.27.48.235.967.456 1.461.662.186.078.373.148.56.222.397.155.799.3 1.204.437.164.055.325.114.489.165a25.571 25.571 0 0 0 2.135.567c.498.111 1 .211 1.509.294.082.014.163.032.245.044a26.266 26.266 0 0 0 2.23.24c.607.042 1.217.07 1.834.07a26.76 26.76 0 0 0 2.222-.099c.498-.042.992-.095 1.482-.164.092-.013.184-.021.275-.035a26.268 26.268 0 0 0 1.647-.306c.171-.037.34-.078.51-.118.417-.099.83-.207 1.239-.326.156-.044.312-.085.466-.132a25.49 25.49 0 0 0 2.091-.751c.328-.132.651-.271.972-.416.203-.091.406-.178.607-.274.436-.21.864-.435 1.287-.667.23-.127.457-.261.683-.395.263-.155.522-.315.78-.479.163-.104.333-.197.495-.306l.667-.444v-.035c6.759-4.828 11.177-12.731 11.177-21.652 0-14.164-11.128-25.775-25.1-26.556v-27.247h59.635v27.247c-13.973.78-25.101 12.391-25.101 26.556 0 8.651 4.153 16.349 10.569 21.209v.025l.63.448c.084.06.173.109.257.168.451.313.908.617 1.378.902.132.081.268.154.402.232.385.224.776.438 1.173.645.175.091.349.184.526.27.479.235.966.456 1.461.662.185.078.373.148.56.222.397.155.798.3 1.204.437.163.055.324.114.488.165a25.765 25.765 0 0 0 2.135.567c.498.111 1.001.211 1.509.294.082.014.163.032.246.044a26.312 26.312 0 0 0 2.23.24c.607.042 1.216.07 1.833.07a26.816 26.816 0 0 0 2.222-.099c.498-.042.992-.095 1.483-.164.091-.013.183-.021.273-.035a26.165 26.165 0 0 0 1.648-.306c.17-.037.339-.078.509-.118.417-.099.83-.207 1.24-.326.155-.044.311-.085.465-.132a25.787 25.787 0 0 0 3.064-1.167c.202-.091.406-.178.606-.274.437-.21.865-.435 1.287-.667.23-.127.457-.261.684-.395.263-.155.522-.315.779-.479.163-.104.333-.197.495-.306l.667-.444v-.035c6.759-4.828 11.178-12.731 11.178-21.652 0-14.164-11.129-25.775-25.101-26.556v-27.247h59.635v27.247c-13.972.78-25.101 12.391-25.101 26.556 0 8.651 4.153 16.349 10.568 21.209v.025l.631.448c.085.06.173.109.257.168.45.313.907.617 1.378.902.133.081.269.154.401.232.386.224.777.438 1.174.645.175.091.349.184.525.27.479.235.966.456 1.461.662.186.078.373.148.561.222.396.155.798.3 1.204.437.162.055.324.114.488.165a25.93 25.93 0 0 0 2.136.567c.497.111 1 .211 1.508.294.082.014.163.032.246.044a26.312 26.312 0 0 0 2.23.24c.606.042 1.217.07 1.833.07a26.79 26.79 0 0 0 2.222-.099c.498-.042.993-.095 1.483-.164.091-.013.184-.021.274-.035a26.133 26.133 0 0 0 1.647-.306c.171-.037.34-.078.51-.118.417-.099.83-.207 1.239-.326.155-.044.312-.085.466-.132a25.787 25.787 0 0 0 3.064-1.167c.202-.091.406-.178.605-.274.438-.21.865-.435 1.288-.667.23-.127.456-.261.684-.395.263-.155.521-.315.778-.479.164-.104.334-.197.495-.306l.667-.444v-.035c6.761-4.83 11.181-12.734 11.181-21.655M48.282 44.123C48.282 21.448 66.73 3 89.405 3c22.675 0 41.123 18.448 41.123 41.123 0 22.676-18.448 41.123-41.123 41.123-22.675 0-41.123-18.447-41.123-41.123m-9.258 136.329c-.066.041-.129.086-.194.125a20.565 20.565 0 0 1-1.669.917 23.624 23.624 0 0 1-1.269.596c-.345.148-.694.288-1.045.42-.202.075-.407.145-.611.215a23.99 23.99 0 0 1-1.438.443c-.338.092-.679.176-1.022.253-.123.026-.244.059-.367.085-.461.095-.926.176-1.393.243-.135.02-.272.034-.408.052a29.94 29.94 0 0 1-1.53.147c-.49.03-.983.051-1.477.051a23.36 23.36 0 0 1-1.546-.057c-.144-.009-.288-.021-.431-.032-.419-.035-.836-.08-1.25-.138-.102-.014-.206-.023-.308-.039a22.69 22.69 0 0 1-1.423-.263c-.167-.036-.333-.076-.499-.115a23.786 23.786 0 0 1-1.018-.267c-.158-.045-.318-.087-.475-.135a24.54 24.54 0 0 1-1.291-.442c-.177-.066-.351-.138-.526-.208a23.545 23.545 0 0 1-.912-.389c-.16-.072-.321-.143-.479-.218a22.186 22.186 0 0 1-1.216-.628c-.154-.085-.306-.175-.459-.264a25.69 25.69 0 0 1-.919-.563c-.093-.061-.188-.118-.28-.181v-1.156c0-5.542 4.509-10.052 10.051-10.052h5.352c5.542 0 10.052 4.51 10.052 10.052v1.548zm11.177-20.054c0 7.136-3.188 13.538-8.21 17.869-.336-6.899-6.038-12.414-13.019-12.414H23.62c-6.807 0-12.406 5.241-12.993 11.899C5.942 173.437 3 167.256 3 160.398c0-13.014 10.587-23.601 23.601-23.601 13.013.001 23.6 10.588 23.6 23.601m51.458 20.054c-.065.041-.128.086-.194.125-.337.204-.678.399-1.022.587-.213.114-.431.223-.646.33a23.63 23.63 0 0 1-2.315 1.016c-.202.075-.407.145-.611.215a23.941 23.941 0 0 1-1.437.443c-.339.092-.68.176-1.022.253-.122.026-.243.059-.367.085-.461.095-.926.176-1.393.243-.135.02-.271.034-.408.052a31.09 31.09 0 0 1-1.53.147c-.49.03-.982.051-1.478.051-.518 0-1.033-.023-1.545-.057-.144-.009-.288-.021-.432-.032a22.63 22.63 0 0 1-1.25-.138c-.102-.014-.206-.023-.308-.039a22.69 22.69 0 0 1-1.423-.263c-.167-.036-.332-.076-.498-.115a23.447 23.447 0 0 1-1.019-.267c-.158-.045-.318-.087-.475-.135a24.858 24.858 0 0 1-1.291-.442c-.176-.066-.351-.138-.525-.208a23.588 23.588 0 0 1-.913-.389c-.16-.072-.321-.143-.479-.218-.41-.196-.816-.406-1.215-.628-.155-.085-.307-.175-.459-.264-.31-.181-.617-.368-.919-.563-.094-.061-.188-.118-.281-.181v-1.156c0-5.542 4.509-10.052 10.052-10.052h5.351c5.543 0 10.052 4.51 10.052 10.052v1.548zm11.178-20.054c0 7.136-3.188 13.538-8.21 17.869-.336-6.899-6.038-12.414-13.02-12.414h-5.351c-6.808 0-12.407 5.241-12.994 11.899-4.685-4.316-7.627-10.497-7.627-17.354 0-13.014 10.587-23.601 23.601-23.601 13.013.001 23.601 10.588 23.601 23.601m51.457 20.054c-.064.041-.128.086-.193.125-.337.204-.679.399-1.023.587-.212.114-.429.223-.645.33a23.688 23.688 0 0 1-2.316 1.016c-.202.075-.406.145-.611.215a23.941 23.941 0 0 1-1.437.443c-.339.092-.68.176-1.022.253-.123.026-.244.059-.367.085-.461.095-.926.176-1.394.243-.135.02-.271.034-.407.052a30.947 30.947 0 0 1-1.53.147c-.491.03-.983.051-1.479.051a23.33 23.33 0 0 1-1.545-.057c-.145-.009-.288-.021-.432-.032a22.63 22.63 0 0 1-1.25-.138c-.103-.014-.206-.023-.309-.039a22.658 22.658 0 0 1-1.422-.263c-.168-.036-.333-.076-.499-.115a23.83 23.83 0 0 1-1.019-.267c-.158-.045-.318-.087-.475-.135a24.54 24.54 0 0 1-1.291-.442c-.177-.066-.351-.138-.525-.208a22.942 22.942 0 0 1-.913-.389c-.159-.072-.321-.143-.479-.218-.41-.196-.814-.406-1.215-.628-.155-.085-.307-.175-.459-.264a24.83 24.83 0 0 1-.919-.563c-.093-.061-.188-.118-.281-.181v-1.156c0-5.542 4.51-10.052 10.053-10.052h5.351c5.543 0 10.052 4.51 10.052 10.052v1.548zm2.968-2.184c-.336-6.899-6.037-12.414-13.02-12.414h-5.351c-6.809 0-12.407 5.241-12.993 11.899-4.687-4.316-7.628-10.497-7.628-17.354 0-13.014 10.588-23.601 23.601-23.601 13.014 0 23.602 10.587 23.602 23.601 0 7.135-3.19 13.538-8.211 17.869"/><path fill="#2f76c8" d="M151.566 145.682c-5.106 0-9.262 4.155-9.262 9.263 0 5.105 4.155 9.261 9.262 9.261s9.262-4.155 9.262-9.261c0-5.108-4.155-9.263-9.262-9.263m0 15.523a6.27 6.27 0 0 1-6.262-6.261 6.27 6.27 0 0 1 6.262-6.263 6.27 6.27 0 0 1 6.262 6.263 6.268 6.268 0 0 1-6.262 6.261"/></svg>