<svg xmlns="http://www.w3.org/2000/svg" xmlns:xlink="http://www.w3.org/1999/xlink" viewBox="0 0 152.248 180.674"><path clip-path="url(#b)" fill="#2f76c8" d="M20.319 180.674h-3v-29.439l1.328-.153c.188-.021 18.962-2.17 33.226-2.17 5.872 0 10.195-1.573 12.85-4.677 3.004-3.513 3.154-8.186 3.049-10.253-4.841-.845-20.778-4.296-20.778-13.109 0-8.773 16.02-11.763 21.127-12.491V97.724l17.887-4.453-25.976-36.196-.043-.39C57.3 32.445 46.445 16.065 27.725 8.001 13.729 1.972.404 3.087.269 3.1L0 .112C.572.061 14.225-1.08 28.911 5.246 53.37 15.782 60.922 38.555 62.926 55.963l28.098 39.149-19.903 4.956v10.97l-1.331.15c-5.136.583-19.796 3.613-19.796 9.684 0 6.105 14.354 9.592 19.383 10.331l1.087.159.176 1.085c.052.325 1.228 8.023-3.617 13.714-3.25 3.815-8.347 5.75-15.15 5.75-11.909 0-27.038 1.52-31.554 2.005v26.758zM117.343 165.099a1.5 1.5 0 0 1-.719-2.816c15.863-8.657 27.204-23.709 31.116-41.297a62.89 62.89 0 0 0 1.509-13.635c0-4.548-.508-9.136-1.509-13.635-3.912-17.587-15.253-32.639-31.116-41.296a1.5 1.5 0 0 1 1.437-2.634c16.622 9.072 28.508 24.846 32.607 43.279a65.92 65.92 0 0 1 1.58 14.285c0 4.768-.532 9.573-1.58 14.286-4.1 18.433-15.985 34.207-32.607 43.278a1.483 1.483 0 0 1-.718.185"/><path clip-path="url(#b)" fill="#2f76c8" d="M103.9 153.048a1.496 1.496 0 0 1-1.397-.957 1.497 1.497 0 0 1 .854-1.94c17.784-6.923 29.276-23.724 29.276-42.799 0-19.077-11.492-35.877-29.276-42.8a1.5 1.5 0 0 1 1.086-2.795c18.947 7.375 31.189 25.272 31.189 45.595 0 20.321-12.242 38.219-31.189 45.594-.177.07-.361.102-.543.102"/><path clip-path="url(#b)" fill="#2f76c8" d="M91.638 140.765a1.5 1.5 0 0 1-.302-2.968c15.816-3.269 25.259-14.65 25.259-30.445 0-15.451-8.995-26.27-25.329-30.46a1.5 1.5 0 0 1 .747-2.906c17.786 4.564 27.582 16.414 27.582 33.367 0 17.325-10.337 29.805-27.651 33.383a1.685 1.685 0 0 1-.306.029"/></svg>