<svg xmlns="http://www.w3.org/2000/svg" xmlns:xlink="http://www.w3.org/1999/xlink" viewBox="0 0 187.806 187.807"><path clip-path="url(#b)" fill="#2f76c8" d="M123.535 61.769c0-16.499-6.426-32.01-18.092-43.676C93.776 6.425 78.267 0 61.768 0s-32.01 6.425-43.676 18.092C6.426 29.758 0 45.27 0 61.769c0 16.498 6.426 32.01 18.092 43.676 12.042 12.041 27.859 18.061 43.676 18.061s31.634-6.02 43.676-18.061c11.665-11.667 18.091-27.178 18.091-43.676m-61.767 58.738c-15.047-.002-30.1-5.729-41.555-17.185C9.114 92.224 3 77.465 3 61.769 3 46.07 9.114 31.313 20.213 20.213 31.313 9.113 46.071 3 61.768 3s30.455 6.113 41.555 17.213 17.213 25.857 17.213 41.555c0 15.697-6.113 30.455-17.213 41.554-11.458 11.459-26.504 17.186-41.555 17.185"/><path clip-path="url(#b)" fill="#2f76c8" d="M13.709 56.436a49.115 49.115 0 0 0-.299 5.333c0 12.917 5.03 25.059 14.164 34.193 9.428 9.429 21.809 14.141 34.194 14.141 12.381 0 24.767-4.715 34.193-14.141 9.134-9.134 14.164-21.276 14.164-34.193s-5.03-25.061-14.164-34.195c-18.854-18.854-49.532-18.855-68.387 0-7.529 7.529-12.261 17.105-13.694 27.471m91.364-6.26L99.916 60.91l-3.965-7.726-4.234 3.08-4.557-7.026-4.67 6.79-4.905-2.913-4.92 5.86 7.454 10.364-14.037 19.394-7.869-22.069-9.706-2.695v-4.678l2.88-8.549 16.494 2.138-11.91-8.117 6.745-1.425-4.232-5.491 4.909-4.123 5.212 1.72 23.214-7.639a45.333 45.333 0 0 1 2.021 1.889c5.412 5.413 9.283 11.954 11.404 19.091M27.58 31.976l11.943 14.148-14.537 8.921h-8.084c1.263-8.551 4.94-16.504 10.678-23.069M16.454 63.59c.462.963.964 1.895 1.494 2.701a76.599 76.599 0 0 1-1.326-.112 46.226 46.226 0 0 1-.168-2.589M33.24 97.03v-13.3l-7.601-5.79 3.691-13.152 17.358 15.721-8.749 19.842a45.026 45.026 0 0 1-4.699-3.321m60.6-3.19c-14.401 14.399-36.155 17.071-53.287 8.02l9.753-22.121-22.554-20.426L22.2 79.09l8.04 6.126v9.142c-.181-.175-.367-.34-.545-.518-6.779-6.779-11.136-15.329-12.665-24.604 1.303.12 3.088.18 3.088.18l1.451-3.449s-2.696-3.88-4.157-7.923h8.421l18.233-11.188-14.431-17.099.06-.063c8.842-8.841 20.457-13.263 32.072-13.263 9.628 0 19.249 3.048 27.298 9.122l-20.459 6.732-5.861-1.934-8.394 7.049 3.075 3.989-8.955 1.893 7.351 5.01-6.492-.841-3.823 11.348v7.449L55.91 69.14l9.261 25.969 18.648-25.765-7.356-10.228 1.781-2.121 5.127 3.044 3.716-5.401 3.836 5.912 3.959-2.879 5.244 10.219 6.264-14.255c.479 2.657.735 5.375.735 8.133 0 12.115-4.718 23.505-13.285 32.072M181.758 152.502l-50.565-50.564-1.489-1.489-13.567 13.567-9.624-9.625-2.121 2.121 9.624 9.625-13.566 13.566 1.489 1.49 12.018 12.017 4.211 4.211 34.336 34.336c4.033 4.033 9.33 6.05 14.628 6.05s10.595-2.017 14.628-6.05c8.063-8.065 8.063-21.189-.002-29.255m-52.055-47.811l13.475 13.476-25.012 25.013-2.968-2.969-10.508-10.507 25.013-25.013zm49.933 74.945c-3.326 3.325-7.767 5.157-12.506 5.157-4.74 0-9.181-1.832-12.507-5.157L120.287 145.3l25.013-25.014 34.336 34.337c6.896 6.897 6.896 18.118 0 25.013"/></svg>