<svg xmlns="http://www.w3.org/2000/svg" xmlns:xlink="http://www.w3.org/1999/xlink" viewBox="0 0 182.163 187.9"><path clip-path="url(#b)" fill="#2f76c8" d="M90.334 39.351c10.849 0 19.675-8.827 19.675-19.676C110.009 8.826 101.183 0 90.334 0S70.659 8.826 70.659 19.675c0 10.848 8.826 19.676 19.675 19.676m0-36.351c9.194 0 16.675 7.48 16.675 16.675s-7.48 16.676-16.675 16.676c-9.194 0-16.675-7.481-16.675-16.676C73.659 10.479 81.14 3 90.334 3M121.819 81.757l-5.173-25.745a.64.64 0 0 0-.039-.129c-3.417-8.363-6.993-12.896-16.026-12.896H81.208c-9.026 0-17.125 8.039-18.055 17.939l-.924 11.435c-.611 7.555-3.232 34.657-4.021 42.784a2.62 2.62 0 0 0 .971 2.301 2.599 2.599 0 0 0 2.43.454c4.841-1.561 8.328-5.709 10.538-9.267v70.556c0 1.602.157 4.657.164 4.788l.013.139c.461 3.136 2.11 3.713 3.051 3.779.066.003.131.005.196.005 1.846 0 3.527-1.767 3.901-3.052.111-.383.221-.723.343-1.094.289-.889.648-1.995 1.197-4.205.507-2.041 7.953-43.173 11.132-60.764a.409.409 0 0 1 .405-.334h1.93c.514 0 .946.376 1.011.885 1.653 13.033 7.086 55.795 7.518 58.434.49 2.984 1.606 5.609 1.797 6.043.929 2.555 2.794 2.844 3.558 2.849 1.555-.017 3.09-.998 3.755-2.389.585-.705 1.635-2.531 1.628-6.565-.006-3.461-.001-60.88 0-73.137 1.492 4.62 3.794 8.706 8.845 12.12.772.521 1.751.728 2.649.478 1.458-.404 2.384-1.703 2.341-3.139-.149-4.942-4.44-27.764-5.762-32.273m2.685 32.494c-.094.05-.153.007-.178-.008-6.51-4.373-7.802-10.054-9.437-17.246-.357-1.57-.728-3.194-1.17-4.876l-3.725-27.388a1.5 1.5 0 1 0-2.972.405l3.722 27.365v9.784c0 .715-.007 71.567 0 75.426.006 3.172-.725 4.358-.897 4.596l-.237.132-.179.486c-.122.332-.627.734-1.046.734h-.004c-.372-.002-.624-.494-.77-.906l-.046-.116c-.012-.025-1.139-2.557-1.598-5.356-.425-2.586-5.85-45.302-7.502-58.321a4.015 4.015 0 0 0-3.988-3.51h-1.929a3.408 3.408 0 0 0-3.358 2.802c-5.102 28.235-10.694 58.977-11.091 60.573-.523 2.107-.85 3.113-1.138 4-.131.403-.251.771-.367 1.174-.111.298-.641.782-.941.882-.08-.121-.242-.438-.351-1.135-.025-.477-.156-3.166-.156-4.559v-76.885l.43-39.369a1.5 1.5 0 0 0-1.483-1.517h-.017a1.5 1.5 0 0 0-1.5 1.483l-.427 39.101c-.595 1.506-4.315 10.308-10.899 12.844.852-8.776 3.369-34.839 3.968-42.244l.923-11.415c.787-8.382 7.546-15.201 15.066-15.201h19.373c6.656 0 9.762 2.55 13.192 10.89.028.069.051.145.065.219.325 1.699 4.279 22.347 5.091 25.471 1.068 4.03 5.505 26.652 5.651 31.553.003.031.004.089-.075.132M53.83 27.65H27.912v25.918a1.5 1.5 0 0 0 3 0V32.771l19.1 19.1c.293.293.676.439 1.06.439s.768-.146 1.061-.439a1.5 1.5 0 0 0 0-2.121l-19.1-19.1H53.83a1.5 1.5 0 0 0 0-3M53.83 155.867H33.033l19.1-19.1a1.5 1.5 0 1 0-2.121-2.121l-19.1 19.1v-20.797a1.5 1.5 0 0 0-3 0v25.918H53.83a1.5 1.5 0 0 0 0-3M5.742 94.761h27.011a1.5 1.5 0 0 0 0-3H5.742l14.705-14.706a1.5 1.5 0 1 0-2.121-2.121L0 93.261l18.326 18.326c.293.293.677.439 1.061.439a1.5 1.5 0 0 0 1.06-2.56L5.742 94.761zM128.333 30.65h20.797l-19.1 19.1a1.5 1.5 0 1 0 2.122 2.121l19.1-19.1v20.797a1.5 1.5 0 0 0 3 0V27.65h-25.918a1.5 1.5 0 0 0-.001 3M152.751 131.449a1.5 1.5 0 0 0-1.5 1.5v20.797l-19.1-19.1a1.5 1.5 0 1 0-2.121 2.121l19.1 19.1h-20.797a1.5 1.5 0 0 0 0 3h25.918v-25.918a1.5 1.5 0 0 0-1.5-1.5M163.837 74.934a1.5 1.5 0 1 0-2.121 2.121l14.705 14.706H149.41a1.5 1.5 0 0 0 0 3h27.011l-14.705 14.705a1.5 1.5 0 1 0 2.122 2.121l18.326-18.326-18.327-18.327z"/></svg>