<svg xmlns="http://www.w3.org/2000/svg" xmlns:xlink="http://www.w3.org/1999/xlink" viewBox="0 0 209.207 187.092"><path clip-path="url(#b)" fill="#2f76c8" d="M209.207 110.818v-35.3H181.17a71.025 71.025 0 0 0-6.43-16.523l18.512-18.512-24.961-24.961-17.498 17.498a71.095 71.095 0 0 0-18.471-8.548V0h-21.43a1.5 1.5 0 0 0 0 3h18.43v23.736l1.094.308a68.038 68.038 0 0 1 19.73 9.147l1.025.692 17.119-17.119 20.719 20.719-17.993 17.993.558.991a68.079 68.079 0 0 1 6.955 17.892l.271 1.159h27.407v29.3h-27.48l-.275 1.151a68.055 68.055 0 0 1-6.816 17.445l-.555.991 17.93 17.93-20.719 20.719-17.022-17.021-1.024.696a68.097 68.097 0 0 1-19.828 9.215l-1.094.308v24.355h-18.43a1.5 1.5 0 0 0 0 3h21.43v-25.092a71.1 71.1 0 0 0 18.571-8.615l17.397 17.396 24.961-24.961-18.451-18.453a71.05 71.05 0 0 0 6.283-16.064h28.122z"/><path clip-path="url(#b)" fill="#2f76c8" d="M111.834 129.868a1.5 1.5 0 0 0 0 3c21.986 0 39.873-17.888 39.873-39.874s-17.887-39.873-39.873-39.873a1.5 1.5 0 0 0 0 3c20.332 0 36.873 16.541 36.873 36.873s-16.541 36.874-36.873 36.874M73.763 3.287C54.911 7.285 43.63 15.393 41.047 26.771 32.124 28.324 25.451 32.2 21.2 38.303c-6.289 9.031-5.31 20.081-4.799 23.553C12.638 64.16-.71 73.581.03 90.867c.703 16.386 7.683 23.307 10.165 25.262-.275 1.887-.788 6.375-.445 11.843.597 9.518 3.554 17.434 8.551 22.895 9.911 10.833 21.233 10.504 25.355 9.939 2.649 13.022 13.479 21.597 31.428 24.844 6.236 1.128 12.302 1.442 17.123 1.442 5.831 0 9.845-.46 10.143-.496l1.324-.155V.656l-1.456-.042C101.647.595 88.13.24 73.763 3.287m-27.396 155.62c-.457-12.29 2.693-22.044 9.364-28.991 10.736-11.18 27.169-11.338 27.333-11.338a1.501 1.501 0 0 0-.001-3c-.722 0-17.835.139-29.474 12.238a33.726 33.726 0 0 0-2.935 3.512C38 124.577 37.449 116.063 37.43 115.668c-.03-.824-.732-1.488-1.546-1.444a1.501 1.501 0 0 0-1.452 1.548c.014.437.497 10.444 14.548 18.063-3.928 6.513-5.814 14.546-5.636 23.977-3.413.463-13.81.889-22.831-8.971-10.994-12.017-7.254-32.903-7.215-33.113l.18-1.017-.876-.54c-.088-.055-8.81-5.633-9.574-23.433-.762-17.76 15.566-26.695 15.731-26.783l.991-.53-.228-1.099c-.026-.126-2.536-12.723 4.14-22.308 3.647-5.237 9.391-8.64 17.084-10.137-.281 11.509 2.665 19.863 8.78 24.833 4.984 4.049 11.063 5.041 15.82 5.041 4.363 0 7.615-.834 7.889-.907a1.501 1.501 0 0 0 1.067-1.834 1.504 1.504 0 0 0-1.834-1.066c-.127.034-12.666 3.25-21.049-3.562-5.643-4.585-8.202-12.704-7.613-24.125C48.073 4.785 92.06 3.602 100.674 3.599v36.76c-2.092.346-6.948.87-13.272-.244-8.277-1.459-15.293-12.702-15.363-12.815a1.501 1.501 0 0 0-2.555 1.572c.314.51 7.787 12.504 17.397 14.198a46.92 46.92 0 0 0 8.132.723 38.67 38.67 0 0 0 5.661-.395v43.277c-2.958-3.495-8.614-8.212-17.611-8.212-8.216 0-12.395 4.032-16.082 7.589-2.697 2.603-5.026 4.851-8.551 4.961-.195.006-.388.009-.581.009-7.718 0-12.747-4.807-13.192-5.249C42.052 72.64 26.204 71.431 26.029 71.42a1.5 1.5 0 0 0-.197 2.994c.041.003 4.221.308 8.298 2.395 5.241 2.683 7.898 6.981 7.898 12.776 0 3.758-1.763 6.959-5.239 9.513-2.718 1.997-5.504 2.833-5.529 2.841a1.5 1.5 0 1 0 .837 2.88c.132-.038 3.25-.962 6.389-3.245 4.177-3.04 6.416-7.066 6.522-11.655 2.586 1.805 7.016 4.103 12.826 4.103.227 0 .458-.003.689-.011 4.682-.145 7.66-3.02 10.541-5.799 3.439-3.319 6.994-6.749 13.999-6.749 12.098 0 17.262 9.82 17.473 10.235.04.078.088.147.138.215v46.638c-20.76-.506-24.323 10.662-24.466 11.149a1.492 1.492 0 0 0 1.003 1.852c.144.044.291.066.434.066a1.51 1.51 0 0 0 1.436-1.056c.124-.397 3.208-9.497 21.593-9.013v42.192c-8.042.66-50.063 2.752-54.307-24.834"/></svg>