<svg xmlns="http://www.w3.org/2000/svg" xmlns:xlink="http://www.w3.org/1999/xlink" viewBox="0 0 203.724 184.084"><path clip-path="url(#b)" fill="#2f76c8" d="M101.936 36.535c10.073 0 18.268-8.194 18.268-18.267C120.203 8.193 112.009 0 101.936 0 91.861 0 83.667 8.193 83.667 18.268c0 10.073 8.194 18.267 18.269 18.267m0-33.535c8.419 0 15.268 6.849 15.268 15.268s-6.849 15.267-15.268 15.267-15.268-6.848-15.268-15.267S93.517 3 101.936 3M171.329 40.796c10.073 0 18.268-8.195 18.268-18.268 0-10.074-8.194-18.268-18.268-18.268s-18.269 8.194-18.269 18.268c.001 10.074 8.196 18.268 18.269 18.268m0-33.536c8.419 0 15.268 6.849 15.268 15.268s-6.849 15.268-15.268 15.268-15.269-6.849-15.269-15.268S162.91 7.26 171.329 7.26M31.324 40.796c10.073 0 18.268-8.195 18.268-18.268 0-10.074-8.195-18.268-18.268-18.268s-18.268 8.194-18.268 18.268 8.195 18.268 18.268 18.268m0-33.536c8.419 0 15.268 6.849 15.268 15.268s-6.849 15.268-15.268 15.268-15.268-6.849-15.268-15.268S22.905 7.26 31.324 7.26M172.619 130.063c8.736-1.524 15.078-9.335 15.078-18.568V58.88c0-7.209-5.622-13.073-12.533-13.073h-7.863v.031a1.458 1.458 0 0 0-.304-.031c-2.541 0-7.479.906-9.928 3.354-.663.686-15.75 16.277-18.297 18.969l-.587.242c-1.109.455-2.153.891-3.169 1.318v-3.168c0-14.131-15.165-25.628-33.805-25.628S67.407 52.391 67.407 66.522v3.487c-.674.11-1.348.22-2.038.31-.165.022-.329.045-.492.069a2.652 2.652 0 0 0-.075-.075l-19.175-21.17a11.41 11.41 0 0 0-7.233-3.291v-.045H27.653c-6.911 0-12.534 5.864-12.534 13.073v52.615c0 9.233 6.341 17.044 15.009 18.556.863.192 1.73.29 2.579.29h25.688a.65.65 0 0 1 .583.353c3.725 7.285 11.399 20.762 20.938 29.13 3.103 2.842 5.307 4.177 6.991 4.177a2.8 2.8 0 0 0 1.458-.398c2.384-1.421 1.573-5.571.449-10.063-.112-.451-.211-.844-.276-1.145l-.118-.534c-7.937-36.356-9.47-41.781-9.888-42.844l-.057-.218-.141-.17c-2.152-3.617-6.063-5.859-10.241-5.859H46.688V87.526h109.44v15.243h-21.404c-4.157 0-8.048 2.218-10.206 5.801l-.31.313v.335c-.521 1.485-2.251 8.027-9.772 42.458l-.156.718h-.001c-.065.301-.164.693-.276 1.145-1.124 4.491-1.937 8.643.449 10.063.442.264.925.399 1.46.399 1.683 0 3.882-1.332 6.966-4.154 9.561-8.392 17.236-21.867 20.961-29.152a.65.65 0 0 1 .584-.353h25.688a11.577 11.577 0 0 0 2.508-.279M75.771 110.18l.006.011-.014-.024.008.013zM46.688 84.526v-1.99c.901.796 1.948 1.452 3.106 1.99h-3.106zm1.192-5.03L31.581 63.191a1.5 1.5 0 0 0-2.122 2.121l14.229 14.229v26.228h24.405c3.141 0 6.083 1.701 7.691 4.44.504 1.255 3.309 12.995 9.706 42.291l.116.535c.071.323.177.744.298 1.23.93 3.717 1.234 5.974.906 6.716-.366-.05-1.681-.453-4.892-3.392-9.187-8.062-16.642-21.166-20.268-28.261a3.635 3.635 0 0 0-3.255-1.988H32.707a9.181 9.181 0 0 1-1.995-.232c-7.179-1.254-12.593-7.966-12.593-15.613V58.88c0-5.555 4.277-10.073 9.534-10.073h9.02c.106.016.215.023.327.017 2.426-.158 4.801.734 6.456 2.387l19.175 21.17c.204.204.384.399.546.589l.55.642.835-.138c.396-.066.795-.126 1.198-.18 3.737-.487 7.197-1.286 10.248-1.991 3.779-.873 8.482-1.961 8.838-.857.691 2.125-4.976 7.38-15.429 10.777-9.644 3.132-17.896 2.472-21.537-1.727m64.706 4.153c.079.339.234.628.438.877H68.878c.486-.141.974-.29 1.467-.45C80.271 80.85 89.42 74.813 87.7 69.518c-1.209-3.715-6.133-2.579-12.367-1.138-1.542.356-3.195.735-4.925 1.085v-2.943c0-12.477 13.818-22.628 30.804-22.628 16.985 0 30.805 10.151 30.805 22.628v4.447c-20.333 8.782-19.782 11.193-19.431 12.68m41.455.877l2.087-2.087v2.087h-2.087zm-12.875 44.803c-3.626 7.095-11.081 20.199-20.291 28.281-3.192 2.922-4.504 3.322-4.869 3.371-.328-.741-.025-2.998.906-6.716.121-.486.227-.907.298-1.23l.156-.72c8.082-36.995 9.45-41.604 9.64-42.059l.006-.011c1.601-2.762 4.555-4.478 7.712-4.478h24.404v-26.33l14.127-14.127a1.5 1.5 0 1 0-2.121-2.121l-19.202 19.203c-2.853 2.298-31.151 2.539-36.1.481 1.088-1.136 5.514-4.345 23.493-11.728.455-.187.77-.316.915-.379l.29-.125.215-.23c1.65-1.773 18.313-18.992 18.463-19.148 1.448-1.449 5.268-2.458 7.789-2.458.104 0 .205-.011.304-.032v.032h7.863c5.257 0 9.533 4.518 9.533 10.073v52.615c0 7.647-5.414 14.359-12.662 15.628a8.903 8.903 0 0 1-1.926.218h-25.688a3.643 3.643 0 0 0-3.255 1.99"/><path clip-path="url(#b)" fill="#2f76c8" d="M3 103.095V42.028H0v61.066c0 14.531 7.953 27.232 19.728 34.006v46.982h3v-45.425a38.964 38.964 0 0 0 16.48 3.646h16.158v41.779h3v-44.779H39.208C19.243 139.304 3 123.061 3 103.095M200.724 42.028v61.066c0 19.966-16.243 36.209-36.208 36.209h-19.157v44.781h3v-41.781h16.157a38.948 38.948 0 0 0 16.479-3.644v45.425h3V137.1c11.776-6.771 19.729-19.473 19.729-34.006V42.028h-3z"/></svg>